<?xml version="1.0" standalone="no"?>
<!DOCTYPE svg PUBLIC "-//W3C//DTD SVG 20010904//EN"
 "http://www.w3.org/TR/2001/REC-SVG-20010904/DTD/svg10.dtd">
<svg version="1.0" xmlns="http://www.w3.org/2000/svg"
 width="512.000000pt" height="512.000000pt" viewBox="0 0 512.000000 512.000000"
 preserveAspectRatio="xMidYMid meet">
<metadata>
Created by potrace 1.14, written by Peter Selinger 2001-2017
</metadata>
<g transform="translate(0.000000,512.000000) scale(0.100000,-0.100000)"
fill="#000000" stroke="none">
<path d="M0 2560 l0 -2560 2560 0 2560 0 0 493 0 493 -35 31 c-19 17 -32 33
-29 36 3 2 -6 7 -20 11 -16 4 -28 16 -32 31 -4 15 -16 28 -30 31 -13 3 -24 10
-24 16 0 14 -86 98 -101 98 -7 0 -9 3 -6 7 4 3 -9 19 -28 36 -19 16 -32 33
-29 38 3 5 0 9 -5 9 -6 0 -20 9 -30 19 -11 11 -31 27 -45 36 -14 10 -26 22
-26 27 0 14 -27 38 -34 31 -3 -4 -6 1 -6 9 0 9 -20 33 -45 53 -24 21 -42 42
-39 46 3 5 -2 6 -11 3 -9 -4 -15 -2 -13 2 2 5 -8 21 -21 34 -13 14 -20 19 -16
11 5 -9 4 -12 -3 -7 -7 4 -12 14 -12 21 0 8 -11 22 -25 31 -14 9 -22 21 -18
28 3 6 3 8 -2 4 -4 -4 -32 17 -61 46 -29 30 -55 52 -58 48 -3 -3 -6 0 -6 6 0
16 -54 72 -69 72 -6 0 -10 6 -8 13 1 6 -4 11 -12 9 -8 -2 -11 3 -8 12 4 9 -1
17 -13 21 -10 3 -21 13 -24 21 -3 8 -10 12 -16 9 -5 -3 -10 0 -10 8 0 7 -14
23 -30 36 -17 12 -28 27 -24 33 5 7 2 8 -5 4 -7 -5 -18 0 -26 10 -12 16 -14
117 -15 594 l-1 575 -22 -26 c-58 -69 -151 -63 -196 12 -18 29 -19 30 -26 10
-11 -37 -63 -71 -107 -71 -32 0 -47 7 -75 35 -19 19 -37 35 -39 35 -2 0 -4
-154 -5 -342 0 -190 -4 -334 -8 -323 -5 11 -29 38 -53 60 -24 22 -47 48 -51
58 -4 10 -11 15 -17 12 -5 -3 -10 2 -10 11 0 10 -3 15 -6 11 -7 -7 -21 4 -77
61 l-42 44 -5 -789 c-6 -888 -1 -837 -83 -891 l-41 -27 -975 -3 c-659 -2 -988
0 -1012 8 -51 14 -88 47 -110 94 -18 39 -19 98 -19 1389 0 1122 2 1353 14
1380 16 39 61 82 99 96 18 7 174 11 443 11 293 0 414 3 414 11 0 6 -9 13 -20
16 -11 3 -20 11 -20 18 0 8 -9 16 -19 20 -11 3 -22 14 -25 23 -3 9 -19 26 -36
37 -16 11 -37 35 -46 53 -8 18 -19 30 -23 28 -4 -3 -14 6 -21 19 -7 13 -17 22
-22 19 -4 -3 -8 0 -8 6 0 6 -4 9 -9 6 -5 -3 -12 5 -15 19 -4 14 -10 24 -14 22
-4 -1 -29 19 -54 46 -25 26 -51 47 -57 47 -6 0 -7 8 -4 17 5 12 2 15 -10 10
-11 -4 -18 1 -22 14 -4 10 -11 17 -16 14 -5 -4 -9 1 -9 10 0 9 -5 13 -10 10
-5 -3 -10 -2 -10 4 0 13 -68 81 -81 81 -6 0 -8 4 -5 9 4 6 -148 157 -183 181
-4 3 -10 13 -14 23 -4 11 -12 15 -18 11 -8 -5 -9 -3 -5 5 5 8 0 14 -13 18 -12
3 -21 11 -21 17 0 14 -42 56 -56 56 -9 0 -37 37 -32 43 8 8 -29 34 -41 29 -8
-3 -12 -1 -8 5 4 6 0 16 -8 23 -8 7 -15 9 -15 4 0 -5 -11 8 -24 28 -12 21 -26
35 -30 31 -3 -4 -13 3 -22 15 l-15 22 -490 0 -489 0 0 -2560z m4050 -1265 c0
-122 -12 -161 -61 -196 -31 -22 -45 -24 -164 -27 -110 -3 -135 0 -164 15 -65
34 -76 60 -80 194 l-3 119 236 0 236 0 0 -105z"/>
<path d="M3772 3588 c-38 -84 -41 -93 -26 -109 30 -33 68 -42 108 -25 20 8 39
22 42 31 6 14 -55 164 -75 187 -4 4 -25 -34 -49 -84z"/>
<path d="M1739 2968 c-56 -68 -107 -124 -113 -126 -6 -1 -36 22 -66 53 -55 56
-76 65 -98 43 -26 -26 -11 -54 78 -143 79 -78 92 -88 104 -75 8 8 69 80 135
160 122 146 144 189 105 204 -33 13 -46 2 -145 -116z"/>
<path d="M1838 2478 c-8 -7 -59 -66 -113 -131 l-98 -118 -62 61 c-35 33 -66
60 -70 60 -3 0 -15 -5 -26 -10 -38 -21 -22 -52 74 -147 l92 -92 133 160 c135
165 152 197 113 219 -24 13 -24 13 -43 -2z"/>
<path d="M1740 1758 c-56 -68 -107 -124 -114 -126 -6 -1 -36 22 -66 53 -55 56
-76 65 -98 43 -26 -26 -11 -54 78 -143 79 -78 92 -88 104 -75 68 70 256 309
256 326 0 24 -18 44 -41 44 -10 0 -62 -53 -119 -122z"/>
</g>
</svg>
